<?xml version="1.0" encoding="utf-8"?>
<!-- Generator: Adobe Illustrator 24.0.1, SVG Export Plug-In . SVG Version: 6.00 Build 0)  -->
<svg version="1.1" id="Capa_1" xmlns="http://www.w3.org/2000/svg" xmlns:xlink="http://www.w3.org/1999/xlink" x="0px" y="0px"
	 viewBox="0 0 23 18.5" style="enable-background:new 0 0 23 18.5;" xml:space="preserve">
<style type="text/css">
	.st0{fill:#1D1D1B;}
</style>
<g>
	<path class="st0" d="M21.85,18.03c-0.41,0.15-0.79,0.18-1.12,0.18c-0.18,0-0.36-0.03-0.52-0.1c-0.16-0.07-0.32-0.18-0.47-0.34
		s-0.3-0.38-0.44-0.65s-0.28-0.62-0.43-1.03c-0.14-0.41-0.29-0.91-0.44-1.48c-0.15-0.57-0.31-1.24-0.48-2
		c-0.74,0.01-1.47,0.02-2.19,0.05c-0.72,0.03-1.47,0.06-2.24,0.1c-0.16,0.4-0.3,0.77-0.42,1.11s-0.23,0.63-0.33,0.89
		c-0.14,0.4-0.27,0.75-0.37,1.04c-0.11,0.29-0.2,0.55-0.28,0.77s-0.15,0.41-0.21,0.57s-0.12,0.3-0.17,0.43
		c-0.06,0.15-0.14,0.26-0.22,0.35s-0.17,0.14-0.26,0.18c-0.09,0.04-0.19,0.06-0.3,0.06s-0.22,0.01-0.34,0.01c-0.07,0-0.15,0-0.25,0
		s-0.19,0-0.28-0.01l-0.08-0.06c0.48-1.02,0.93-1.99,1.37-2.91c0.43-0.93,0.84-1.81,1.24-2.66c-0.08-0.13-0.13-0.24-0.13-0.32
		c0-0.16,0.13-0.24,0.38-0.24c0.73-1.57,1.38-2.95,1.96-4.15c0.57-1.2,1.08-2.2,1.51-3c0.04-0.07,0.09-0.14,0.16-0.18
		s0.13-0.09,0.21-0.11c0.08-0.03,0.16-0.05,0.24-0.06c0.08-0.01,0.17-0.02,0.25-0.02c0.12,0,0.23,0.01,0.34,0.03
		c0.11,0.02,0.23,0.06,0.36,0.11c0.25,1.36,0.48,2.58,0.69,3.66s0.4,2.05,0.58,2.9c0.18,0.85,0.35,1.59,0.51,2.22
		s0.31,1.17,0.46,1.62c0.15,0.45,0.3,0.82,0.44,1.12c0.15,0.29,0.3,0.52,0.46,0.69s0.32,0.29,0.5,0.35s0.37,0.1,0.58,0.1
		c0.14,0,0.27-0.02,0.41-0.05c0.14-0.03,0.29-0.08,0.46-0.13 M17.8,11.88c-0.08-0.39-0.17-0.82-0.27-1.29s-0.19-0.97-0.29-1.49
		s-0.2-1.07-0.31-1.64c-0.1-0.57-0.21-1.15-0.31-1.73h-0.04C16.01,6.89,15.5,8,15.05,9.05c-0.45,1.05-0.85,2.02-1.21,2.9
		c0.69-0.02,1.35-0.03,2-0.04S17.13,11.89,17.8,11.88z"/>
</g>
<g>
	<path class="st0" d="M3.12,10.76c0,0-0.49,1.35-1.48,1.35c-0.51,0-0.91-0.14-1.21-0.42S0,11.04,0,10.55c0-0.74,0.45-1.76,1.36-3.06
		s2.08-2.56,3.51-3.77c1.37-1.16,2.74-2.05,4.1-2.7s2.58-0.96,3.64-0.96c0.66,0,1.16,0.15,1.52,0.45s0.54,0.72,0.54,1.27
		c0,0.63-0.37,1.78-1.1,3.46c-0.73,1.68-1.84,3.91-3.33,6.69h3.1l-0.37,0.89H9.75c-0.86,1.5-1.52,2.62-2,3.35
		c-0.48,0.73-0.92,1.34-1.34,1.8H4.99C5.74,17.1,6.41,16.24,7,15.39s1.14-1.71,1.63-2.58H6.76l1.44-0.89h0.94
		c1.73-3.34,2.9-5.69,3.51-7.07s0.92-2.32,0.92-2.82c0-0.38-0.1-0.65-0.29-0.82s-0.51-0.26-0.94-0.26c-0.8,0-1.83,0.31-3.1,0.93
		S6.75,3.32,5.58,4.34C4.28,5.46,3.21,6.6,2.36,7.77s-1.28,2.03-1.28,2.57c0,0.25,0.07,0.43,0.2,0.57
		C2.1,11.76,2.99,10.99,3.12,10.76"/>
</g>
</svg>
