<?xml version="1.0" encoding="utf-8"?>
<!-- Generator: Adobe Illustrator 24.0.1, SVG Export Plug-In . SVG Version: 6.00 Build 0)  -->
<svg version="1.1" id="Capa_1" xmlns="http://www.w3.org/2000/svg" xmlns:xlink="http://www.w3.org/1999/xlink" x="0px" y="0px"
	 viewBox="0 0 200 170" style="enable-background:new 0 0 200 170;" xml:space="preserve">
<style type="text/css">
	.st0{fill:#B2A89F;}
	.st1{fill:#1D1D1B;}
</style>
<rect class="st0" width="200" height="170"/>
<g>
	<path class="st1" d="M190.06,163.75c-3.53,1.32-6.83,1.55-9.63,1.55c-1.59,0-3.08-0.29-4.48-0.88s-2.74-1.6-4.04-3.03
		c-1.29-1.43-2.55-3.36-3.78-5.77s-2.46-5.45-3.7-9.11c-1.24-3.66-2.52-8.02-3.83-13.07s-2.69-10.93-4.14-17.63
		c-6.39,0.07-12.69,0.22-18.92,0.44c-6.23,0.22-12.68,0.53-19.34,0.91c-1.35,3.55-2.56,6.82-3.65,9.78
		c-1.09,2.97-2.03,5.59-2.82,7.87c-1.24,3.52-2.32,6.58-3.24,9.19c-0.91,2.61-1.72,4.88-2.41,6.81c-0.69,1.93-1.29,3.6-1.81,5
		s-1,2.67-1.45,3.81c-0.55,1.31-1.17,2.33-1.86,3.05c-0.69,0.72-1.43,1.25-2.23,1.58c-0.79,0.33-1.66,0.52-2.59,0.57
		c-0.93,0.05-1.92,0.08-2.95,0.08c-0.59,0-1.32-0.01-2.2-0.03c-0.88-0.02-1.68-0.04-2.41-0.08l-0.72-0.52
		c4.14-8.97,8.07-17.55,11.78-25.73c3.71-8.18,7.29-16.01,10.74-23.5c-0.72-1.14-1.09-2.09-1.09-2.85c0-1.38,1.1-2.09,3.31-2.12
		c6.32-13.87,11.94-26.1,16.88-36.68c4.94-10.58,9.28-19.42,13.05-26.53c0.35-0.66,0.79-1.2,1.35-1.63
		c0.55-0.43,1.16-0.77,1.81-1.01s1.35-0.41,2.07-0.52c0.72-0.1,1.43-0.16,2.12-0.16c1,0,1.98,0.09,2.95,0.26s2,0.5,3.11,0.98
		c2.17,11.98,4.17,22.75,5.98,32.33c1.81,9.58,3.49,18.11,5.05,25.6c1.55,7.49,3.02,14.02,4.4,19.6s2.71,10.35,3.99,14.34
		s2.55,7.27,3.83,9.86c1.28,2.59,2.6,4.62,3.96,6.11c1.36,1.48,2.8,2.52,4.32,3.11c1.52,0.59,3.18,0.88,4.97,0.88
		c1.17,0,2.36-0.14,3.57-0.41c1.21-0.28,2.54-0.67,3.99-1.19 M155.11,109.45c-0.72-3.42-1.5-7.2-2.33-11.36
		c-0.83-4.16-1.67-8.56-2.54-13.2c-0.86-4.64-1.74-9.48-2.64-14.52c-0.9-5.04-1.78-10.15-2.64-15.32h-0.31
		c-4.97,10.29-9.41,20.07-13.31,29.35c-3.9,9.28-7.37,17.83-10.41,25.63c5.94-0.14,11.68-0.25,17.24-0.34
		C143.74,109.59,149.39,109.52,155.11,109.45z"/>
</g>
<g>
	<path class="st1" d="M28.47,99.55c0,0-4.21,11.89-12.77,11.89c-4.42,0-7.89-1.23-10.41-3.68c-2.52-2.45-3.78-5.82-3.78-10.1
		c0-6.56,3.92-15.58,11.75-27.08S31.2,48,43.56,37.3c11.8-10.22,23.61-18.15,35.41-23.81S101.23,5,110.34,5
		c5.66,0,10.04,1.31,13.15,3.93c3.11,2.62,4.66,6.35,4.66,11.18c0,5.52-3.16,15.7-9.47,30.54c-6.32,14.84-15.89,34.55-28.73,59.12
		h26.71l-3.21,7.87H85.7c-7.39,13.25-13.13,23.12-17.24,29.61c-4.11,6.49-7.96,11.8-11.54,15.95H44.59
		c6.42-7.66,12.2-15.26,17.34-22.78c5.14-7.52,9.82-15.12,14.03-22.78H59.81l12.46-7.87h8.15c14.91-29.47,25.01-50.3,30.29-62.49
		s7.92-20.48,7.92-24.9c0-3.31-0.85-5.73-2.54-7.25s-4.4-2.28-8.13-2.28c-6.9,0-15.82,2.74-26.77,8.23S59.74,33.82,49.67,42.79
		c-11.18,9.87-20.45,19.97-27.8,30.29s-11.03,17.9-11.03,22.73c0,2.21,0.65,3.83,1.76,5.02C19.64,108.39,27.28,101.57,28.47,99.55"
		/>
</g>
</svg>
